<mxfile host="app.diagrams.net" modified="2023-10-18T23:56:25.818Z" agent="Mozilla/5.0 (Windows NT 10.0; Win64; x64) AppleWebKit/537.36 (KHTML, like Gecko) Chrome/118.0.0.0 Safari/537.36" etag="5PR0QC3fH69ldaGtGxG1" version="21.7.2" type="github">
  <diagram id="C5RBs43oDa-KdzZeNtuy" name="Page-1">
    <mxGraphModel dx="1707" dy="478" grid="1" gridSize="10" guides="1" tooltips="1" connect="1" arrows="1" fold="1" page="1" pageScale="1" pageWidth="827" pageHeight="1169" math="0" shadow="0">
      <root>
        <mxCell id="WIyWlLk6GJQsqaUBKTNV-0" />
        <mxCell id="WIyWlLk6GJQsqaUBKTNV-1" parent="WIyWlLk6GJQsqaUBKTNV-0" />
        <mxCell id="kL2YTDX9EPqiO3jO1FHr-14" value="" style="endArrow=diamondThin;endFill=0;endSize=24;html=1;rounded=0;entryX=0.5;entryY=1;entryDx=0;entryDy=0;" edge="1" parent="WIyWlLk6GJQsqaUBKTNV-1" source="kL2YTDX9EPqiO3jO1FHr-31" target="kL2YTDX9EPqiO3jO1FHr-17">
          <mxGeometry width="160" relative="1" as="geometry">
            <mxPoint x="659.8400000000001" y="1322.8" as="sourcePoint" />
            <mxPoint x="230" y="1540" as="targetPoint" />
            <Array as="points">
              <mxPoint x="670" y="1540" />
              <mxPoint x="340" y="1540" />
              <mxPoint x="260" y="1540" />
            </Array>
          </mxGeometry>
        </mxCell>
        <mxCell id="kL2YTDX9EPqiO3jO1FHr-15" value="Avaliação" style="swimlane;fontStyle=2;align=center;verticalAlign=top;childLayout=stackLayout;horizontal=1;startSize=30;horizontalStack=0;resizeParent=1;resizeLast=0;collapsible=1;marginBottom=0;rounded=0;shadow=0;strokeWidth=1;" vertex="1" parent="WIyWlLk6GJQsqaUBKTNV-1">
          <mxGeometry x="280" y="1020" width="160" height="202" as="geometry">
            <mxRectangle x="230" y="140" width="160" height="26" as="alternateBounds" />
          </mxGeometry>
        </mxCell>
        <mxCell id="kL2YTDX9EPqiO3jO1FHr-50" value="descrição: String" style="text;strokeColor=none;fillColor=none;align=left;verticalAlign=top;spacingLeft=4;spacingRight=4;overflow=hidden;rotatable=0;points=[[0,0.5],[1,0.5]];portConstraint=eastwest;whiteSpace=wrap;html=1;" vertex="1" parent="kL2YTDX9EPqiO3jO1FHr-15">
          <mxGeometry y="30" width="160" height="26" as="geometry" />
        </mxCell>
        <mxCell id="kL2YTDX9EPqiO3jO1FHr-51" value="estande: Estande" style="text;strokeColor=none;fillColor=none;align=left;verticalAlign=top;spacingLeft=4;spacingRight=4;overflow=hidden;rotatable=0;points=[[0,0.5],[1,0.5]];portConstraint=eastwest;whiteSpace=wrap;html=1;" vertex="1" parent="kL2YTDX9EPqiO3jO1FHr-15">
          <mxGeometry y="56" width="160" height="26" as="geometry" />
        </mxCell>
        <mxCell id="kL2YTDX9EPqiO3jO1FHr-52" value="nota: float" style="text;strokeColor=none;fillColor=none;align=left;verticalAlign=top;spacingLeft=4;spacingRight=4;overflow=hidden;rotatable=0;points=[[0,0.5],[1,0.5]];portConstraint=eastwest;whiteSpace=wrap;html=1;" vertex="1" parent="kL2YTDX9EPqiO3jO1FHr-15">
          <mxGeometry y="82" width="160" height="26" as="geometry" />
        </mxCell>
        <mxCell id="kL2YTDX9EPqiO3jO1FHr-53" value="comentarios: String" style="text;strokeColor=none;fillColor=none;align=left;verticalAlign=top;spacingLeft=4;spacingRight=4;overflow=hidden;rotatable=0;points=[[0,0.5],[1,0.5]];portConstraint=eastwest;whiteSpace=wrap;html=1;" vertex="1" parent="kL2YTDX9EPqiO3jO1FHr-15">
          <mxGeometry y="108" width="160" height="26" as="geometry" />
        </mxCell>
        <mxCell id="kL2YTDX9EPqiO3jO1FHr-58" value="professor:&amp;nbsp;Professor" style="text;strokeColor=none;fillColor=none;align=left;verticalAlign=top;spacingLeft=4;spacingRight=4;overflow=hidden;rotatable=0;points=[[0,0.5],[1,0.5]];portConstraint=eastwest;whiteSpace=wrap;html=1;" vertex="1" parent="kL2YTDX9EPqiO3jO1FHr-15">
          <mxGeometry y="134" width="160" height="26" as="geometry" />
        </mxCell>
        <mxCell id="kL2YTDX9EPqiO3jO1FHr-59" value="aluno: Aluno" style="text;strokeColor=none;fillColor=none;align=left;verticalAlign=top;spacingLeft=4;spacingRight=4;overflow=hidden;rotatable=0;points=[[0,0.5],[1,0.5]];portConstraint=eastwest;whiteSpace=wrap;html=1;" vertex="1" parent="kL2YTDX9EPqiO3jO1FHr-15">
          <mxGeometry y="160" width="160" height="26" as="geometry" />
        </mxCell>
        <mxCell id="kL2YTDX9EPqiO3jO1FHr-16" value="" style="line;html=1;strokeWidth=1;align=left;verticalAlign=middle;spacingTop=-1;spacingLeft=3;spacingRight=3;rotatable=0;labelPosition=right;points=[];portConstraint=eastwest;" vertex="1" parent="kL2YTDX9EPqiO3jO1FHr-15">
          <mxGeometry y="186" width="160" height="16" as="geometry" />
        </mxCell>
        <mxCell id="kL2YTDX9EPqiO3jO1FHr-17" value="Grupo" style="swimlane;fontStyle=0;align=center;verticalAlign=top;childLayout=stackLayout;horizontal=1;startSize=26;horizontalStack=0;resizeParent=1;resizeLast=0;collapsible=1;marginBottom=0;rounded=0;shadow=0;strokeWidth=1;" vertex="1" parent="WIyWlLk6GJQsqaUBKTNV-1">
          <mxGeometry x="180" y="1320" width="160" height="90" as="geometry">
            <mxRectangle x="130" y="380" width="160" height="26" as="alternateBounds" />
          </mxGeometry>
        </mxCell>
        <mxCell id="kL2YTDX9EPqiO3jO1FHr-18" value="alunos: Aluno[]" style="text;align=left;verticalAlign=top;spacingLeft=4;spacingRight=4;overflow=hidden;rotatable=0;points=[[0,0.5],[1,0.5]];portConstraint=eastwest;" vertex="1" parent="kL2YTDX9EPqiO3jO1FHr-17">
          <mxGeometry y="26" width="160" height="26" as="geometry" />
        </mxCell>
        <mxCell id="kL2YTDX9EPqiO3jO1FHr-19" value="nomeGrupo" style="text;align=left;verticalAlign=top;spacingLeft=4;spacingRight=4;overflow=hidden;rotatable=0;points=[[0,0.5],[1,0.5]];portConstraint=eastwest;rounded=0;shadow=0;html=0;" vertex="1" parent="kL2YTDX9EPqiO3jO1FHr-17">
          <mxGeometry y="52" width="160" height="26" as="geometry" />
        </mxCell>
        <mxCell id="kL2YTDX9EPqiO3jO1FHr-20" value="" style="line;html=1;strokeWidth=1;align=left;verticalAlign=middle;spacingTop=-1;spacingLeft=3;spacingRight=3;rotatable=0;labelPosition=right;points=[];portConstraint=eastwest;" vertex="1" parent="kL2YTDX9EPqiO3jO1FHr-17">
          <mxGeometry y="78" width="160" height="12" as="geometry" />
        </mxCell>
        <mxCell id="kL2YTDX9EPqiO3jO1FHr-54" style="edgeStyle=orthogonalEdgeStyle;rounded=0;orthogonalLoop=1;jettySize=auto;html=1;startArrow=ERzeroToOne;startFill=0;endArrow=ERzeroToMany;endFill=0;endSize=12;startSize=12;" edge="1" parent="WIyWlLk6GJQsqaUBKTNV-1" source="kL2YTDX9EPqiO3jO1FHr-62" target="kL2YTDX9EPqiO3jO1FHr-15">
          <mxGeometry relative="1" as="geometry">
            <mxPoint x="470" y="1310" as="sourcePoint" />
          </mxGeometry>
        </mxCell>
        <mxCell id="kL2YTDX9EPqiO3jO1FHr-23" value="Estande" style="swimlane;fontStyle=0;align=center;verticalAlign=top;childLayout=stackLayout;horizontal=1;startSize=26;horizontalStack=0;resizeParent=1;resizeLast=0;collapsible=1;marginBottom=0;rounded=0;shadow=0;strokeWidth=1;" vertex="1" parent="WIyWlLk6GJQsqaUBKTNV-1">
          <mxGeometry x="-50" y="1020" width="160" height="90" as="geometry">
            <mxRectangle x="550" y="140" width="160" height="26" as="alternateBounds" />
          </mxGeometry>
        </mxCell>
        <mxCell id="kL2YTDX9EPqiO3jO1FHr-25" value="grupo: Grupo" style="text;align=left;verticalAlign=top;spacingLeft=4;spacingRight=4;overflow=hidden;rotatable=0;points=[[0,0.5],[1,0.5]];portConstraint=eastwest;rounded=0;shadow=0;html=0;" vertex="1" parent="kL2YTDX9EPqiO3jO1FHr-23">
          <mxGeometry y="26" width="160" height="26" as="geometry" />
        </mxCell>
        <mxCell id="kL2YTDX9EPqiO3jO1FHr-26" value="dataApresentacao: datetime" style="text;align=left;verticalAlign=top;spacingLeft=4;spacingRight=4;overflow=hidden;rotatable=0;points=[[0,0.5],[1,0.5]];portConstraint=eastwest;rounded=0;shadow=0;html=0;" vertex="1" parent="kL2YTDX9EPqiO3jO1FHr-23">
          <mxGeometry y="52" width="160" height="26" as="geometry" />
        </mxCell>
        <mxCell id="kL2YTDX9EPqiO3jO1FHr-28" value="" style="line;html=1;strokeWidth=1;align=left;verticalAlign=middle;spacingTop=-1;spacingLeft=3;spacingRight=3;rotatable=0;labelPosition=right;points=[];portConstraint=eastwest;" vertex="1" parent="kL2YTDX9EPqiO3jO1FHr-23">
          <mxGeometry y="78" width="160" height="8" as="geometry" />
        </mxCell>
        <mxCell id="kL2YTDX9EPqiO3jO1FHr-55" style="edgeStyle=orthogonalEdgeStyle;rounded=0;orthogonalLoop=1;jettySize=auto;html=1;startArrow=ERzeroToOne;startFill=0;endArrow=ERzeroToMany;endFill=0;endSize=12;startSize=12;" edge="1" parent="WIyWlLk6GJQsqaUBKTNV-1" source="kL2YTDX9EPqiO3jO1FHr-31" target="kL2YTDX9EPqiO3jO1FHr-15">
          <mxGeometry relative="1" as="geometry">
            <Array as="points">
              <mxPoint x="540" y="1100" />
              <mxPoint x="540" y="1100" />
            </Array>
          </mxGeometry>
        </mxCell>
        <mxCell id="kL2YTDX9EPqiO3jO1FHr-31" value="Alunos" style="swimlane;fontStyle=1;align=center;verticalAlign=top;childLayout=stackLayout;horizontal=1;startSize=26;horizontalStack=0;resizeParent=1;resizeParentMax=0;resizeLast=0;collapsible=1;marginBottom=0;whiteSpace=wrap;html=1;" vertex="1" parent="WIyWlLk6GJQsqaUBKTNV-1">
          <mxGeometry x="590" y="1055" width="160" height="90" as="geometry" />
        </mxCell>
        <mxCell id="kL2YTDX9EPqiO3jO1FHr-32" value="matricula: int&lt;br&gt;nome: String" style="text;strokeColor=none;fillColor=none;align=left;verticalAlign=top;spacingLeft=4;spacingRight=4;overflow=hidden;rotatable=0;points=[[0,0.5],[1,0.5]];portConstraint=eastwest;whiteSpace=wrap;html=1;" vertex="1" parent="kL2YTDX9EPqiO3jO1FHr-31">
          <mxGeometry y="26" width="160" height="44" as="geometry" />
        </mxCell>
        <mxCell id="kL2YTDX9EPqiO3jO1FHr-33" value="" style="line;strokeWidth=1;fillColor=none;align=left;verticalAlign=middle;spacingTop=-1;spacingLeft=3;spacingRight=3;rotatable=0;labelPosition=right;points=[];portConstraint=eastwest;strokeColor=inherit;" vertex="1" parent="kL2YTDX9EPqiO3jO1FHr-31">
          <mxGeometry y="70" width="160" height="20" as="geometry" />
        </mxCell>
        <mxCell id="kL2YTDX9EPqiO3jO1FHr-45" value="&amp;lt;depende&amp;gt;" style="text;html=1;align=center;verticalAlign=middle;resizable=0;points=[];autosize=1;strokeColor=none;fillColor=none;" vertex="1" parent="WIyWlLk6GJQsqaUBKTNV-1">
          <mxGeometry x="30" y="1340" width="80" height="30" as="geometry" />
        </mxCell>
        <mxCell id="kL2YTDX9EPqiO3jO1FHr-46" value="&amp;lt;contém&amp;gt;" style="text;html=1;align=center;verticalAlign=middle;resizable=0;points=[];autosize=1;strokeColor=none;fillColor=none;" vertex="1" parent="WIyWlLk6GJQsqaUBKTNV-1">
          <mxGeometry x="250" y="1510" width="80" height="30" as="geometry" />
        </mxCell>
        <mxCell id="kL2YTDX9EPqiO3jO1FHr-47" value="" style="endArrow=open;endSize=12;dashed=1;html=1;rounded=0;" edge="1" parent="WIyWlLk6GJQsqaUBKTNV-1" source="kL2YTDX9EPqiO3jO1FHr-23" target="kL2YTDX9EPqiO3jO1FHr-17">
          <mxGeometry width="160" relative="1" as="geometry">
            <mxPoint x="20" y="1240" as="sourcePoint" />
            <mxPoint x="180" y="1420" as="targetPoint" />
            <Array as="points">
              <mxPoint x="30" y="1365" />
            </Array>
            <mxPoint as="offset" />
          </mxGeometry>
        </mxCell>
        <mxCell id="kL2YTDX9EPqiO3jO1FHr-48" style="edgeStyle=orthogonalEdgeStyle;rounded=0;orthogonalLoop=1;jettySize=auto;html=1;endArrow=ERone;endFill=0;startArrow=ERone;startFill=0;endSize=12;startSize=12;" edge="1" parent="WIyWlLk6GJQsqaUBKTNV-1" source="kL2YTDX9EPqiO3jO1FHr-26" target="kL2YTDX9EPqiO3jO1FHr-15">
          <mxGeometry relative="1" as="geometry">
            <Array as="points">
              <mxPoint x="230" y="1085" />
              <mxPoint x="230" y="1085" />
            </Array>
          </mxGeometry>
        </mxCell>
        <mxCell id="kL2YTDX9EPqiO3jO1FHr-62" value="&lt;span style=&quot;font-weight: normal;&quot;&gt;&lt;font style=&quot;font-size: 12px;&quot;&gt;Professor&lt;/font&gt;&lt;/span&gt;" style="swimlane;fontStyle=1;align=center;verticalAlign=top;childLayout=stackLayout;horizontal=1;startSize=26;horizontalStack=0;resizeParent=1;resizeParentMax=0;resizeLast=0;collapsible=1;marginBottom=0;whiteSpace=wrap;html=1;fontFamily=Helvetica;fontSize=11;fontColor=default;" vertex="1" parent="WIyWlLk6GJQsqaUBKTNV-1">
          <mxGeometry x="400" y="1321" width="160" height="86" as="geometry" />
        </mxCell>
        <mxCell id="kL2YTDX9EPqiO3jO1FHr-63" value="registroUvv: int" style="text;strokeColor=none;fillColor=none;align=left;verticalAlign=top;spacingLeft=4;spacingRight=4;overflow=hidden;rotatable=0;points=[[0,0.5],[1,0.5]];portConstraint=eastwest;whiteSpace=wrap;html=1;fontSize=11;fontFamily=Helvetica;fontColor=default;" vertex="1" parent="kL2YTDX9EPqiO3jO1FHr-62">
          <mxGeometry y="26" width="160" height="26" as="geometry" />
        </mxCell>
        <mxCell id="kL2YTDX9EPqiO3jO1FHr-66" value="nome: String" style="text;strokeColor=none;fillColor=none;align=left;verticalAlign=top;spacingLeft=4;spacingRight=4;overflow=hidden;rotatable=0;points=[[0,0.5],[1,0.5]];portConstraint=eastwest;whiteSpace=wrap;html=1;fontSize=11;fontFamily=Helvetica;fontColor=default;" vertex="1" parent="kL2YTDX9EPqiO3jO1FHr-62">
          <mxGeometry y="52" width="160" height="26" as="geometry" />
        </mxCell>
        <mxCell id="kL2YTDX9EPqiO3jO1FHr-64" value="" style="line;strokeWidth=1;fillColor=none;align=left;verticalAlign=middle;spacingTop=-1;spacingLeft=3;spacingRight=3;rotatable=0;labelPosition=right;points=[];portConstraint=eastwest;strokeColor=inherit;fontFamily=Helvetica;fontSize=11;fontColor=default;" vertex="1" parent="kL2YTDX9EPqiO3jO1FHr-62">
          <mxGeometry y="78" width="160" height="8" as="geometry" />
        </mxCell>
      </root>
    </mxGraphModel>
  </diagram>
</mxfile>
